<svg xmlns="http://www.w3.org/2000/svg" version="1.1" xmlns:xlink="http://www.w3.org/1999/xlink" xmlns:svgjs="http://svgjs.dev/svgjs" viewBox="-50 -50 100 110"><line x1="0" y1="0" x2="100" y2="0" stroke-width="2" stroke="#3e7a4c" transform="matrix(0.5000000000000001,-0.8660254037844386,0.8660254037844386,0.5000000000000001,0,0)" stroke-dasharray="0.00001 19 2 4 0 6 2 6 0.00001 1000" stroke-linecap="round"></line><line x1="0" y1="0" x2="100" y2="0" stroke-width="2" stroke="#3e7a4c" transform="matrix(1,0,0,1,0,0)" stroke-dasharray="0.00001 19 0 4 0 6 2 6 0.00001 1000" stroke-linecap="round"></line><line x1="0" y1="0" x2="100" y2="0" stroke-width="2" stroke="#3e7a4c" transform="matrix(0.5000000000000001,0.8660254037844386,-0.8660254037844386,0.5000000000000001,0,0)" stroke-dasharray="0.00001 19 0 4 0 4 2 6 0 4 0.00001 1000" stroke-linecap="square"></line><line x1="0" y1="0" x2="100" y2="0" stroke-width="2" stroke="#3e7a4c" transform="matrix(-0.4999999999999998,0.8660254037844387,-0.8660254037844387,-0.4999999999999998,0,0)" stroke-dasharray="0.00001 19 0 6 0 6 0 4 0 4 0.00001 1000" stroke-linecap="round"></line><line x1="0" y1="0" x2="100" y2="0" stroke-width="2" stroke="black" transform="matrix(-1,1.2246467991473532e-16,-1.2246467991473532e-16,-1,0,0)" stroke-dasharray="0.00001 19 2 4 2 4 0 6 0.00001 1000" stroke-linecap="round"></line><line x1="0" y1="0" x2="100" y2="0" stroke-width="2" stroke="#3e7a4c" transform="matrix(-0.5000000000000004,-0.8660254037844384,0.8660254037844384,-0.5000000000000004,0,0)" stroke-dasharray="0.00001 19 0 4 0 4 0 4 0 4 0.00001 1000" stroke-linecap="square"></line><circle r="7" cx="0" cy="0" fill="transparent" stroke-width="2" stroke="#3e7a4c" stroke-dasharray=" 2 1.6651914291880918 2 1.6651914291880918 3.665191429188092 0 2 1.6651914291880918 2 1.6651914291880918 2 1.6651914291880918 3.665191429188092 0 0 3.665191429188092 2 1.6651914291880918 2 1.6651914291880918 3.665191429188092 0 3.665191429188092 0" stroke-dashoffset="1" stroke-linecap="butt" style="fill: none;"></circle><circle r="11" cx="0" cy="0" fill="transparent" stroke-width="2" stroke="black" stroke-dasharray=" 2 1.8397243543875246 2 1.8397243543875246 2 1.8397243543875246 3.8397243543875246 0 2 1.8397243543875246 2 1.8397243543875246 0 3.8397243543875246 3.8397243543875246 0 2 1.8397243543875246 2 1.8397243543875246 2 1.8397243543875246 2 1.8397243543875246 2 1.8397243543875246 2 1.8397243543875246 3.8397243543875246 0 2 1.8397243543875246 2 1.8397243543875246 2 1.8397243543875246" stroke-dashoffset="1" stroke-linecap="butt" style="fill: none;"></circle><circle r="15" cx="0" cy="0" fill="transparent" stroke-width="2" stroke="#3e7a4c" stroke-dasharray="0.00001 3.926990816987241 3.926990816987241 0 0.00001 7.853981633974482 0.00001 3.926990816987241 0.00001 3.926990816987241 3.926990816987241 3.926990816987241 0.00001 3.926990816987241 3.926990816987241 0 3.926990816987241 0 0.00001 3.926990816987241 0.00001 3.926990816987241 0.00001 3.926990816987241 0.00001 3.926990816987241 0.00001 3.926990816987241 0.00001 3.926990816987241 3.926990816987241 0 0.00001 7.853981633974482 0.00001 3.926990816987241 0.00001 11.780972450961723" stroke-dashoffset="0" stroke-linecap="round" style="fill: none;"></circle><g><rect width="2" height="8" fill="#3e7a4c" x="-1" y="-4" transform="matrix(6.123233995736766e-17,1,-1,6.123233995736766e-17,0,0)"></rect><rect width="2" height="8" fill="#3e7a4c" x="-1" y="-4" transform="matrix(0.8660254037844387,0.49999999999999994,-0.49999999999999994,0.8660254037844387,0,0)"></rect><rect width="2" height="8" fill="#3e7a4c" x="-1" y="-4" transform="matrix(0.8660254037844387,-0.49999999999999994,0.49999999999999994,0.8660254037844387,0,0)"></rect></g><g transform="matrix(1,0,0,1,0,0)"><path d="M 0, 0
             m -19, 0
             a 19,19 0 1,0 38,0
             a 19,19 0 1,0 -38,0" fill="transparent" style="fill: none;" id="SvgjsPath1016"></path><text svgjs:data="{&quot;leading&quot;:&quot;1.3&quot;}"><textPath xlink:href="#SvgjsPath1016" font-family="Conduit ITC Medium" font-size="2" fill="#3e7a4c" side="left" startOffset="2" svgjs:data="{&quot;leading&quot;:&quot;1.3&quot;}"><tspan dy="0" x="0" svgjs:data="{&quot;newLined&quot;:true}">green-neutron-star</tspan></textPath></text></g><g transform="matrix(-0.4999999999999998,-0.8660254037844387,0.8660254037844387,-0.4999999999999998,-0.2567367553710937,-0.14822703482437208)"><path d="M 0, 0
             m -19.5, 0
             a 19.5,19.5 0 1,0 39,0
             a 19.5,19.5 0 1,0 -39,0" fill="transparent" style="fill: none;" id="SvgjsPath1017"></path><text svgjs:data="{&quot;leading&quot;:&quot;1.3&quot;}"><textPath xlink:href="#SvgjsPath1017" font-family="Conduit ITC Medium" font-size="2" fill="#3e7a4c" side="left" startOffset="2" svgjs:data="{&quot;leading&quot;:&quot;1.3&quot;}"><tspan dy="0" x="0" svgjs:data="{&quot;newLined&quot;:true}">i33-d80-a30</tspan></textPath></text></g><g transform="matrix(-0.5000000000000004,0.8660254037844384,-0.8660254037844384,-0.5000000000000004,-0.259105682373047,0.14959473546664023)"><path d="M 0, 0
             m -19.5, 0
             a 19.5,19.5 0 1,0 39,0
             a 19.5,19.5 0 1,0 -39,0" fill="transparent" style="fill: none;" id="SvgjsPath1018"></path><text svgjs:data="{&quot;leading&quot;:&quot;1.3&quot;}"><textPath xlink:href="#SvgjsPath1018" font-family="Conduit ITC Medium" font-size="2" fill="#3e7a4c" side="left" startOffset="2" svgjs:data="{&quot;leading&quot;:&quot;1.3&quot;}"><tspan dy="0" x="0" svgjs:data="{&quot;newLined&quot;:true}">cs-t2xh-2024</tspan></textPath></text></g></svg>