<svg xmlns="http://www.w3.org/2000/svg" version="1.1" xmlns:xlink="http://www.w3.org/1999/xlink" xmlns:svgjs="http://svgjs.dev/svgjs" viewBox="-50 -50 100 110"><line x1="0" y1="0" x2="100" y2="0" stroke-width="2" stroke="#b03a48" transform="matrix(0.5000000000000001,-0.8660254037844386,0.8660254037844386,0.5000000000000001,0,0)" stroke-dasharray="0.00001 7 2 4 0.00001 1000" stroke-linecap="square"></line><line x1="0" y1="0" x2="100" y2="0" stroke-width="2" stroke="#b03a48" transform="matrix(0.5000000000000001,-0.8660254037844386,0.8660254037844386,0.5000000000000001,0,0)" stroke-dasharray="0.00001 31 2 6 0.00001 1000" stroke-linecap="square"></line><line x1="0" y1="0" x2="100" y2="0" stroke-width="2" stroke="#b03a48" transform="matrix(1,0,0,1,0,0)" stroke-dasharray="0.00001 7 0 4 0.00001 1000" stroke-linecap="square"></line><line x1="0" y1="0" x2="100" y2="0" stroke-width="2" stroke="#b03a48" transform="matrix(1,0,0,1,0,0)" stroke-dasharray="0.00001 31 2 4 0.00001 1000" stroke-linecap="square"></line><line x1="0" y1="0" x2="100" y2="0" stroke-width="2" stroke="#b03a48" transform="matrix(0.5000000000000001,0.8660254037844386,-0.8660254037844386,0.5000000000000001,0,0)" stroke-dasharray="0.00001 7 0 4 0.00001 1000" stroke-linecap="round"></line><line x1="0" y1="0" x2="100" y2="0" stroke-width="2" stroke="#b03a48" transform="matrix(0.5000000000000001,0.8660254037844386,-0.8660254037844386,0.5000000000000001,0,0)" stroke-dasharray="0.00001 31 0 6 0.00001 1000" stroke-linecap="round"></line><line x1="0" y1="0" x2="100" y2="0" stroke-width="2" stroke="#b03a48" transform="matrix(-0.4999999999999998,0.8660254037844387,-0.8660254037844387,-0.4999999999999998,0,0)" stroke-dasharray="0.00001 7 2 4 0.00001 1000" stroke-linecap="square"></line><line x1="0" y1="0" x2="100" y2="0" stroke-width="2" stroke="#b03a48" transform="matrix(-0.4999999999999998,0.8660254037844387,-0.8660254037844387,-0.4999999999999998,0,0)" stroke-dasharray="0.00001 31 0 4 0.00001 1000" stroke-linecap="round"></line><line x1="0" y1="0" x2="100" y2="0" stroke-width="2" stroke="#f1e7da" transform="matrix(-1,1.2246467991473532e-16,-1.2246467991473532e-16,-1,0,0)" stroke-dasharray="0.00001 7 2 4 0.00001 1000" stroke-linecap="square"></line><line x1="0" y1="0" x2="100" y2="0" stroke-width="2" stroke="#f1e7da" transform="matrix(-1,1.2246467991473532e-16,-1.2246467991473532e-16,-1,0,0)" stroke-dasharray="0.00001 31 2 6 0.00001 1000" stroke-linecap="round"></line><line x1="0" y1="0" x2="100" y2="0" stroke-width="2" stroke="#b03a48" transform="matrix(-0.5000000000000004,-0.8660254037844384,0.8660254037844384,-0.5000000000000004,0,0)" stroke-dasharray="0.00001 7 0 4 0.00001 1000" stroke-linecap="round"></line><line x1="0" y1="0" x2="100" y2="0" stroke-width="2" stroke="#b03a48" transform="matrix(-0.5000000000000004,-0.8660254037844384,0.8660254037844384,-0.5000000000000004,0,0)" stroke-dasharray="0.00001 31 0 4 0.00001 1000" stroke-linecap="square"></line><circle r="19" cx="0" cy="0" fill="transparent" stroke-width="2" stroke="#b03a48" stroke-dasharray=" 2 1.3161255787892259 2 1.3161255787892259 3.316125578789226 0 2 1.3161255787892259 2 1.3161255787892259 2 1.3161255787892259 3.316125578789226 0 0 3.316125578789226 2 1.3161255787892259 2 1.3161255787892259 3.316125578789226 0 3.316125578789226 0 2 1.3161255787892259 2 1.3161255787892259 2 1.3161255787892259 0 3.316125578789226 2 1.3161255787892259 2 1.3161255787892259 0 3.316125578789226 3.316125578789226 0 2 1.3161255787892259 2 1.3161255787892259 2 1.3161255787892259 2 1.3161255787892259 2 1.3161255787892259 2 1.3161255787892259 3.316125578789226 0 2 1.3161255787892259 2 1.3161255787892259 2 1.3161255787892259 2 1.3161255787892259 2 1.3161255787892259 2 1.3161255787892259 0 3.316125578789226 2 1.3161255787892259 2 1.3161255787892259" stroke-dashoffset="1" stroke-linecap="butt" style="fill: none;"></circle><circle r="23" cx="0" cy="0" fill="transparent" stroke-width="2" stroke="#f1e7da" stroke-dasharray=" 0 4.014257279586958 2 2.0142572795869578 4.014257279586958 0 4.014257279586958 0 2 2.0142572795869578 2 2.0142572795869578 2 2.0142572795869578 2 2.0142572795869578 2 2.0142572795869578 2 2.0142572795869578 4.014257279586958 0 2 2.0142572795869578 0 4.014257279586958 2 2.0142572795869578 2 2.0142572795869578 0 4.014257279586958 0 4.014257279586958 4.014257279586958 0 2 2.0142572795869578 4.014257279586958 0 4.014257279586958 0 2 2.0142572795869578 2 2.0142572795869578 0 4.014257279586958 4.014257279586958 0 2 2.0142572795869578 2 2.0142572795869578 2 2.0142572795869578 0 4.014257279586958 2 2.0142572795869578 0 4.014257279586958 2 2.0142572795869578 2 2.0142572795869578 2 2.0142572795869578 2 2.0142572795869578 0 4.014257279586958" stroke-dashoffset="1" stroke-linecap="butt" style="fill: none;"></circle><circle r="27" cx="0" cy="0" fill="transparent" stroke-width="2" stroke="#b03a48" stroke-dasharray=" 2 2.0391905546154483 4.039190554615448 0 0 4.039190554615448 2 2.0391905546154483 4.039190554615448 0 2 2.0391905546154483 0 4.039190554615448 2 2.0391905546154483 4.039190554615448 0 4.039190554615448 0 2 2.0391905546154483 4.039190554615448 0 2 2.0391905546154483 4.039190554615448 0 2 2.0391905546154483 4.039190554615448 0 2 2.0391905546154483 2 2.0391905546154483 0 4.039190554615448 2 2.0391905546154483 4.039190554615448 0 2 2.0391905546154483 2 2.0391905546154483 0 4.039190554615448 2 2.0391905546154483 4.039190554615448 0 4.039190554615448 0 0 4.039190554615448 0 4.039190554615448 2 2.0391905546154483 2 2.0391905546154483 2 2.0391905546154483 4.039190554615448 0 2 2.0391905546154483 4.039190554615448 0 2 2.0391905546154483 2 2.0391905546154483 2 2.0391905546154483 2 2.0391905546154483 2 2.0391905546154483 2 2.0391905546154483 0 4.039190554615448" stroke-dashoffset="1" stroke-linecap="butt" style="fill: none;"></circle><g><rect width="2" height="8" fill="#b03a48" x="-1" y="-4" transform="matrix(6.123233995736766e-17,1,-1,6.123233995736766e-17,0,0)"></rect><rect width="2" height="8" fill="#b03a48" x="-1" y="-4" transform="matrix(0.8660254037844387,0.49999999999999994,-0.49999999999999994,0.8660254037844387,0,0)"></rect><rect width="2" height="8" fill="#b03a48" x="-1" y="-4" transform="matrix(0.8660254037844387,-0.49999999999999994,0.49999999999999994,0.8660254037844387,0,0)"></rect></g><g transform="matrix(1,0,0,1,0,0)"><path d="M 0, 0
             m -31, 0
             a 31,31 0 1,0 62,0
             a 31,31 0 1,0 -62,0" fill="transparent" style="fill: none;" id="SvgjsPath1002"></path><text svgjs:data="{&quot;leading&quot;:&quot;1.3&quot;}"><textPath xlink:href="#SvgjsPath1002" font-family="Conduit ITC Medium" font-size="2" fill="#b03a48" side="left" startOffset="2" svgjs:data="{&quot;leading&quot;:&quot;1.3&quot;}"><tspan dy="0" x="0" svgjs:data="{&quot;newLined&quot;:true}">red-pulsar-i33-d80-a30</tspan></textPath></text></g><g transform="matrix(-1,1.2246467991473532e-16,-1.2246467991473532e-16,-1,-0.3790740966796875,2.321159395692268e-17)"><path d="M 0, 0
             m -31.5, 0
             a 31.5,31.5 0 1,0 63,0
             a 31.5,31.5 0 1,0 -63,0" fill="transparent" style="fill: none;" id="SvgjsPath1003"></path><text svgjs:data="{&quot;leading&quot;:&quot;1.3&quot;}"><textPath xlink:href="#SvgjsPath1003" font-family="Conduit ITC Medium" font-size="2" fill="#b03a48" side="left" startOffset="2" svgjs:data="{&quot;leading&quot;:&quot;1.3&quot;}"><tspan dy="0" x="0" svgjs:data="{&quot;newLined&quot;:true}">cs-t2xh-2024</tspan></textPath></text></g></svg>